<svg width="136" height="60" viewBox="0 0 136 60" fill="none" xmlns="http://www.w3.org/2000/svg">
<path d="M0.955444 21.1156C0.955444 8.79815 9.57959 2.19954 19.9275 1.31972C30.2755 0.439908 44.0728 0 71.2361 0C98.3995 0 113.059 0.879815 123.407 2.19954C133.755 3.51926 135.918 15 135.911 21.9954C135.903 28.9908 135.816 37.6209 134.617 45.3105C133.418 53 128.15 59.3875 117.371 59.8274C106.592 60.2673 33.724 59.8274 22.9457 58.9476C12.1674 58.0678 4.83593 54.5485 3.11127 45.3105C1.38661 36.0724 0.955444 33.433 0.955444 21.1156Z" fill="white"/>
<path d="M67.9021 25.4098C67.9592 25.5676 68.026 25.7522 68.1086 26C68.1086 26 71.8923 23.8378 72.0005 23.8378C71.8972 23.7088 71.8125 23.5983 71.7374 23.5003C71.4979 23.1879 71.3567 23.0037 71.0275 22.7568C70.3788 22.3243 69.514 22.2162 68.7572 22.6486C68.0005 23.0811 67.568 23.8378 67.6761 24.7027C67.7429 24.97 67.8098 25.1546 67.9021 25.4098Z" fill="#FF0000"/>
<path d="M58.0545 28.7027C57.2978 29.1351 56.8653 29.8919 56.9734 30.7568C57.065 31.2147 57.1566 31.4398 57.3139 31.8266C57.3423 31.8964 57.3728 31.9714 57.4059 32.0541C57.4059 32.0541 61.2978 29.7838 61.2978 29.8919C61.1945 29.7629 61.1098 29.6523 61.0347 29.5544C60.7952 29.242 60.654 29.0577 60.3248 28.8108C59.6761 28.3784 58.8113 28.2703 58.0545 28.7027Z" fill="#FF0000"/>
<path fill-rule="evenodd" clip-rule="evenodd" d="M60.9734 10H84.4328C86.3787 10 88.0004 11.6216 88.0004 13.5676V15.4883C87.3337 15.4283 86.7382 15.5448 86.0545 15.8378L84.9734 16.3784C84.0005 16.8108 83.4599 16.7027 83.0275 16.0541C82.5951 15.2973 82.9194 14.5405 84.0005 13.8919C84.7572 13.4595 85.4059 13.3514 86.1626 13.3514C86.2707 13.3514 86.4869 12.5946 86.4869 12.5946C85.6221 12.3784 84.541 12.5946 83.6761 13.1351C82.1626 14 81.6221 15.2973 82.3788 16.4865C83.0275 17.5676 84.0005 17.7838 85.514 17.1351L86.7032 16.5946C87.2239 16.3342 87.6749 16.2829 88.0004 16.4405V18.7568C87.784 18.865 87.0275 19.4054 87.0275 19.4054C86.1626 19.9459 85.2978 20.0541 84.4329 19.8378C84.3248 19.8378 84.1086 20.5946 84.1086 20.5946C85.1896 20.9189 86.2707 20.7027 87.4599 20.0541L88.0004 19.8379V50H51.5679C49.622 50 48.0004 48.3784 48.0004 46.3243V13.5676C48.0004 11.6216 49.622 10 51.5679 10H57.0815L63.7842 21.5676L71.6761 16.9189L70.1626 14.3243L65.1896 17.2432L60.9734 10ZM82.0545 20.7027C82.4869 21.4595 83.0275 21.5676 83.6761 21.2432C83.6761 21.2432 84.1086 20.9189 84.3248 20.9189C84.3248 20.9189 84.6491 21.5676 84.6491 21.6757L84.0005 22C82.9194 22.5405 81.9464 22.2162 81.2978 21.1351C81.2978 21.1351 78.9194 16.9189 78.9194 16.8108C78.9194 16.8108 78.0545 17.3514 77.9464 17.3514C77.9464 17.3514 77.6221 16.8108 77.6221 16.7027L78.4869 16.2703C78.4869 16.2703 77.2978 14.2162 77.2978 14.1081C77.2978 14.1081 77.9464 13.6757 78.0545 13.6757C78.0545 13.6757 79.1356 15.6216 79.1356 15.7297C79.1356 15.7297 80.6491 14.8649 80.7572 14.8649C80.7572 14.8649 81.0815 15.4054 81.0815 15.5135L79.568 16.2703L82.0545 20.7027ZM74.5951 18.3243C75.3518 17.8919 76.1086 17.6757 76.7572 17.8919C77.514 18.1081 78.0545 18.6486 78.5951 19.4054C78.5951 19.4054 80.9734 23.6216 80.9734 23.7297L80.2167 24.1622L77.8383 19.9459C77.0815 18.7568 76.1086 18.4324 74.9194 19.0811C73.7302 19.7297 73.514 20.8108 74.1626 22.2162C74.1626 22.2162 76.541 26.3243 76.541 26.4324C76.541 26.4324 75.8923 26.8649 75.7842 26.8649C75.7842 26.8649 72.0005 20.1622 72.0005 20.0541C72.0005 20.0541 72.6491 19.6216 72.7572 19.6216C72.7572 19.6216 73.0815 20.1622 73.0815 20.3784C73.2978 19.5135 73.8383 18.7568 74.5951 18.3243ZM68.541 26.6486C69.514 28.2703 70.8113 28.7027 72.1086 27.9459C72.8653 27.5135 73.1896 27.0811 73.4059 26.1081C73.4059 26.1081 74.1626 26.2162 74.2707 26.3243C74.0545 27.4054 73.6221 28.1622 72.4329 28.8108C71.6761 29.3514 70.8113 29.4595 70.0545 29.2432C69.0815 28.9189 68.3248 28.1622 67.568 26.973C66.9194 25.6757 66.7032 24.5946 66.9194 23.6216C67.1356 22.8649 67.568 22.3243 68.3248 21.8919C70.0545 20.9189 71.7842 21.5676 72.9734 23.6216C72.9734 23.6216 73.0815 23.9459 73.0815 24.0541C73.0815 24.0541 68.6491 26.5405 68.541 26.6486ZM59.8923 16.8108C60.9734 18.7568 61.2978 20.0541 60.9734 21.4595C60.541 23.1892 59.568 24.0541 58.2707 24.8108C56.8653 25.5676 55.568 25.6757 54.1626 25.3514C52.2047 24.8361 51.3273 23.3387 50.3132 21.608C50.2634 21.523 50.2132 21.4374 50.1626 21.3514C50.1058 21.2504 50.0487 21.1494 49.9915 21.0484C49.069 19.419 48.1401 17.7783 48.6491 15.9459C49.0815 14.5405 49.8383 13.5676 51.2437 12.7027C54.2707 10.8649 56.7572 12.1622 58.1626 13.8919L55.2437 15.6216C54.4869 14.8649 53.7302 14.7568 52.6491 15.2973C52.1086 15.6216 51.7842 16.0541 51.7842 16.4865C51.7842 17.027 51.7842 17.5676 53.0815 19.7297C54.3788 21.8919 54.8113 22.2162 55.2437 22.4324C55.568 22.5405 56.1086 22.5405 56.6491 22.2162C57.2978 21.8919 57.6221 21.4595 57.7302 21.027C57.9464 20.4865 57.7302 19.9459 57.4059 19.5135L57.2978 19.2973L55.568 20.2703L54.1626 17.8919L58.9194 15.1892L59.8923 16.8108ZM59.6761 34.4324C60.2167 34.5405 60.7572 34.4324 61.4059 34.1081C62.1626 33.6757 62.4869 33.1351 62.7032 32.1622C62.7032 32.1622 63.4599 32.2703 63.568 32.3784C63.3518 33.4595 62.9194 34.2162 61.7302 34.8649C59.8923 35.9459 58.1626 35.2973 56.8653 33.1351C55.6761 30.8649 55.8923 29.027 57.6221 28.0541C59.3518 27.0811 61.0815 27.7297 62.2707 29.7838C62.2707 29.7838 62.3788 30.1081 62.3788 30.2162C62.3788 30.2162 57.9464 32.7027 57.8383 32.8108C58.3788 33.6757 59.0275 34.2162 59.6761 34.4324ZM66.2707 30.7568C66.0545 29.7838 64.9734 24.0541 64.9734 23.8378C64.9734 23.8378 65.8383 23.4054 65.8383 23.5135L67.2437 31.6216C67.2437 31.6216 66.5951 32.0541 66.4869 32.0541C66.4869 32.0541 60.2167 26.7568 60.2167 26.6486C60.2167 26.6486 60.9734 26.2162 61.0815 26.2162C61.0815 26.2162 66.0545 30.5405 66.2707 30.7568Z" fill="#FF0000"/>
</svg>