<svg width="136" height="60" viewBox="0 0 136 60" fill="none" xmlns="http://www.w3.org/2000/svg">
<path d="M0.910858 21.1156C0.910858 8.79815 9.535 2.19954 19.883 1.31972C30.2309 0.439908 44.0282 0 71.1916 0C98.3549 0 113.015 0.879815 123.362 2.19954C133.71 3.51926 135.874 15 135.866 21.9954C135.859 28.9908 135.772 37.6209 134.573 45.3105C133.374 53 128.105 59.3875 117.326 59.8274C106.547 60.2673 33.6794 59.8274 22.9011 58.9476C12.1228 58.0678 4.79134 54.5485 3.06668 45.3105C1.34202 36.0724 0.910858 33.433 0.910858 21.1156Z" fill="white"/>
<g clip-path="url(#clip0)">
<path fill-rule="evenodd" clip-rule="evenodd" d="M17.7002 22.4509L12.9997 30.3913L17.7002 38.3321H21.9598L23.4077 35.979L21.8813 33.5198H20.6002L18.7499 30.3945L20.6002 27.2677H21.9445L20.4506 24.8629L21.9356 22.4509H17.7002Z" fill="#FB263B"/>
<path fill-rule="evenodd" clip-rule="evenodd" d="M23.0033 22.4509L21.5192 24.8629L23.0126 27.2677H24.3011L26.1514 30.3945L24.3011 33.5198H22.9489L24.4763 35.979L23.0275 38.3321H27.1016L31.8017 30.3913L27.1016 22.4509H23.0033Z" fill="#7D7779"/>
<path fill-rule="evenodd" clip-rule="evenodd" d="M34.9864 22.2737V38.0768H45.9799V33.0046H40.9629V22.2737H34.9864Z" fill="#FB263B"/>
<mask id="mask0" mask-type="alpha" maskUnits="userSpaceOnUse" x="47" y="22" width="19" height="17">
<path d="M47.5967 22H65.4657V38.472H47.5967V22Z" fill="white"/>
</mask>
<g mask="url(#mask0)">
<path fill-rule="evenodd" clip-rule="evenodd" d="M56.531 21.9999C51.6247 21.9999 47.5967 25.2606 47.5967 30.2783C47.5967 35.4024 51.603 38.4719 56.531 38.4719C61.459 38.4719 65.4657 35.4024 65.4657 30.2783C65.4657 25.2606 61.4378 21.9999 56.531 21.9999ZM56.531 27.2508C58.3949 27.2508 59.5522 28.6692 59.5522 30.3628C59.5522 32.1832 58.3094 33.4332 56.531 33.4332C54.7525 33.4332 53.5098 32.1832 53.5098 30.3628C53.5098 28.6692 54.6671 27.2508 56.531 27.2508Z" fill="#FB263B"/>
</g>
<path fill-rule="evenodd" clip-rule="evenodd" d="M82.4713 22.2539L77.4144 29.7278L83.1779 38.2184H76.4931L74.6509 34.8304C74.4792 34.5123 74.372 34.1951 74.3078 33.857H74.136C74.0293 34.2376 73.8793 34.5976 73.6867 34.9568L71.8865 38.2184H65.2018L70.8585 29.7278L65.7804 22.2539H72.4005L73.6008 24.5193C73.8358 24.9428 73.9652 25.3873 74.0935 25.8323H74.2224C74.33 25.3663 74.5226 24.9428 74.7364 24.5193L75.8503 22.2539H82.4713Z" fill="#FB263B"/>
<path fill-rule="evenodd" clip-rule="evenodd" d="M90.3616 36.2278H94.7964L95.3326 38.2184H101.546L95.7824 22.2539H89.2907L83.6764 38.2184H89.8901L90.3616 36.2278ZM91.4113 32.4381L92.4832 27.5678H92.6975C92.8041 28.246 92.9113 28.9442 93.0826 29.6219L93.7684 32.4381H91.4113Z" fill="#FB263B"/>
<mask id="mask1" mask-type="alpha" maskUnits="userSpaceOnUse" x="102" y="22" width="22" height="17">
<path d="M102.103 22.2539H124V38.2184H102.103V22.2539Z" fill="white"/>
</mask>
<g mask="url(#mask1)">
<path fill-rule="evenodd" clip-rule="evenodd" d="M104.717 22.2539H110.758L112.987 30.6382H113.137C113.244 29.9391 113.351 29.1984 113.543 28.5212L115.365 22.2539H121.343L124 38.2184H118.322L117.529 29.4736H117.422C117.315 30.003 117.208 30.5538 117.037 31.0622L114.701 38.2184H111.273L109.173 31.4638C109.001 30.7865 108.852 30.1513 108.809 29.4736H108.616C108.574 30.1088 108.531 30.7656 108.466 31.4004L107.781 38.2184H102.103L104.717 22.2539Z" fill="#FB263B"/>
</g>
</g>
<defs>
<clipPath id="clip0">
<rect width="111" height="16.472" fill="white" transform="translate(12.9997 22)"/>
</clipPath>
</defs>
</svg>