<svg width="170" height="76" viewBox="0 0 170 76" fill="none" xmlns="http://www.w3.org/2000/svg">
<path d="M0.821716 26.8945C0.821716 11.4977 11.6019 3.24942 24.5368 2.14965C37.4718 1.04988 54.7184 0.5 88.6726 0.5C122.627 0.5 140.951 1.59977 153.886 3.24942C166.821 4.89908 169.525 19.25 169.516 27.9942C169.507 36.7384 169.398 47.5262 167.899 57.1381C166.4 66.75 159.815 74.7344 146.341 75.2843C132.867 75.8342 41.7824 75.2843 28.3095 74.1845C14.8367 73.0847 5.67232 68.6857 3.5165 57.1381C1.36067 45.5905 0.821716 42.2912 0.821716 26.8945Z" fill="white"/>
<g clip-path="url(#clip0)">
<path d="M98.6625 14.4142H72.4125V61.5859H98.6625V14.4142Z" fill="#F26522"/>
<path d="M74.0792 38C74.0792 28.43 78.56 19.9075 85.5375 14.4142C80.435 10.3967 73.9958 8 66.9975 8C50.4308 8 37 21.4317 37 38C37 54.5683 50.4308 68 66.9975 68C73.9958 68 80.4342 65.6033 85.5375 61.5858C78.56 56.0925 74.0792 47.57 74.0792 38Z" fill="#E51B24"/>
<path d="M131.213 56.5901V55.6242H131.603V55.4275H130.611V55.6242H131V56.5901H131.213ZM133.138 56.5901V55.425H132.834L132.484 56.2259L132.134 55.425H131.83V56.5892H132.045V55.7109L132.373 56.4684H132.596L132.923 55.7092V56.5892H133.138V56.5901Z" fill="#231F20"/>
<path d="M134.075 38C134.075 54.5683 120.644 68 104.077 68C97.0792 68 90.6408 65.6033 85.5375 61.5858C92.515 56.0925 96.9958 47.57 96.9958 38C96.9958 28.43 92.515 19.9075 85.5375 14.4142C90.6408 10.3967 97.0792 8 104.077 8C120.645 8 134.075 21.4317 134.075 38Z" fill="#F99F1C"/>
</g>
<defs>
<clipPath id="clip0">
<rect width="97.075" height="60" fill="white" transform="translate(37 8)"/>
</clipPath>
</defs>
</svg>
