<svg width="136" height="60" viewBox="0 0 136 60" fill="none" xmlns="http://www.w3.org/2000/svg">
<path d="M0.866211 21.1156C0.866211 8.79815 9.49035 2.19954 19.8383 1.31972C30.1863 0.439908 43.9835 0 71.1469 0C98.3103 0 112.97 0.879815 123.318 2.19954C133.666 3.51926 135.829 15 135.822 21.9954C135.814 28.9908 135.727 37.6209 134.528 45.3105C133.329 53 128.061 59.3875 117.282 59.8274C106.502 60.2673 33.6347 59.8274 22.8565 58.9476C12.0782 58.0678 4.74669 54.5485 3.02204 45.3105C1.29738 36.0724 0.866211 33.433 0.866211 21.1156Z" fill="white"/>
<g clip-path="url(#clip0)">
<path d="M48 10H87.8475C87.847 23.3174 87.8479 36.6349 87.847 49.9523C74.565 49.9531 61.2821 49.9523 48 49.9527V10ZM82.5008 38.898C82.4992 38.9827 82.4988 39.0678 82.5004 39.153C82.6908 39.1517 82.882 39.1525 83.0724 39.1525C83.0736 39.6826 83.0724 40.2126 83.0732 40.743C83.1772 40.7422 83.2813 40.7422 83.3853 40.7426C83.3853 40.2126 83.3849 39.6826 83.3857 39.1525C83.5765 39.1525 83.7681 39.1521 83.9589 39.1525C83.9585 39.0678 83.9585 38.9836 83.9589 38.8988C83.4729 38.898 82.9868 38.8997 82.5008 38.898ZM84.3224 38.8984C84.3211 39.5132 84.3211 40.1279 84.3224 40.7426C84.426 40.7426 84.5296 40.7426 84.6336 40.7426C84.6357 40.2389 84.6303 39.7356 84.6369 39.2319C84.8454 39.7311 85.0337 40.2385 85.2327 40.7414C85.2993 40.7418 85.3664 40.7418 85.4342 40.7418C85.6349 40.2368 85.8261 39.7282 86.0321 39.2257C86.0358 39.7311 86.0329 40.2368 86.0341 40.7426C86.1373 40.7422 86.241 40.7422 86.3446 40.7434C86.3483 40.1287 86.345 39.514 86.3462 38.8993C86.1883 38.898 86.0304 38.8984 85.8729 38.8993C85.6974 39.361 85.5181 39.8215 85.3401 40.2825C85.1608 39.8207 84.9782 39.3602 84.7989 38.8984C84.6398 38.8988 84.4807 38.8984 84.3224 38.8984ZM52.7299 40.8643C51.9544 40.8956 51.1735 41.2471 50.7118 41.8865C50.3146 42.4223 50.1558 43.1032 50.1591 43.7623C50.1472 44.3828 50.2722 45.0218 50.6036 45.5535C50.8721 45.9885 51.2833 46.3298 51.7562 46.5214C52.3261 46.7529 52.965 46.7944 53.5654 46.6706C54.1221 46.5559 54.6493 46.264 55.0119 45.8211C55.3392 45.4293 55.5288 44.9367 55.6061 44.435C55.6896 43.8524 55.6674 43.2471 55.4955 42.6822C55.3343 42.1525 55.0074 41.6702 54.553 41.3516C54.0271 40.9782 53.3672 40.8302 52.7299 40.8643ZM58.0374 41.6509C58.0382 41.4354 58.0382 41.22 58.0374 41.0049C57.5732 41.0049 57.109 41.0025 56.6447 41.0066C56.6472 42.8635 56.6451 44.7204 56.646 46.5773C57.1435 46.5794 57.641 46.5773 58.1386 46.5785C58.141 45.3458 58.1357 44.1127 58.1414 42.8803C58.2023 42.699 58.3684 42.5678 58.5341 42.4819C58.9145 42.301 59.3454 42.2854 59.7586 42.2817C59.7586 41.8211 59.7582 41.3606 59.759 40.9005C59.1077 40.8396 58.4568 41.162 58.0374 41.6509ZM61.6904 41.0514C61.1838 41.2134 60.7319 41.5424 60.4268 41.9799C60.7562 42.1727 61.0888 42.3602 61.4206 42.5485C61.7035 42.1974 62.1217 41.9552 62.574 41.9194C62.8976 41.8914 63.2854 41.9079 63.5164 42.1706C63.6801 42.3586 63.6324 42.6213 63.6386 42.8495C62.8787 42.9391 62.1118 43.0641 61.4038 43.3655C61.0041 43.5391 60.6143 43.7878 60.3783 44.1653C60.1147 44.5888 60.088 45.1303 60.2348 45.5995C60.354 45.9864 60.641 46.317 61.0103 46.4827C61.4334 46.6797 61.9174 46.669 62.3684 46.597C62.8183 46.5218 63.2492 46.3462 63.6303 46.0958C63.6727 46.2566 63.7151 46.4169 63.7578 46.5781C64.1933 46.5777 64.6287 46.5781 65.0641 46.5781C65.0481 45.2903 65.0584 44.0016 65.0567 42.7138C65.0826 42.3343 65.0111 41.9326 64.773 41.6271C64.4634 41.2138 63.9507 41.0181 63.4568 40.9391C62.8697 40.8549 62.2586 40.8697 61.6904 41.0514ZM68.9589 40.9317C68.4371 41.0395 67.9803 41.3331 67.5543 41.6406C67.5115 41.4227 67.4622 41.2056 67.4235 40.9873C67.0169 41.0428 66.6098 41.0991 66.2031 41.1562C66.2023 42.9609 66.2031 44.7652 66.2031 46.5695C66.6896 46.5699 67.1756 46.5695 67.6624 46.5695C67.6624 45.2393 67.6624 43.9095 67.6624 42.5798C68.007 42.2928 68.4013 42.0312 68.8561 41.9745C69.0851 41.949 69.354 41.9626 69.521 42.1439C69.6859 42.3368 69.7122 42.6044 69.72 42.8483C69.7208 44.0888 69.7204 45.3289 69.7204 46.5695C70.2097 46.5703 70.699 46.5695 71.1883 46.5695C71.1883 45.25 71.1883 43.9305 71.1883 42.611C71.1826 42.3462 71.1464 42.0794 71.0551 41.8302C70.9363 41.4951 70.69 41.2052 70.3647 41.058C69.9276 40.8594 69.4243 40.8433 68.9589 40.9317ZM72.7726 41.7426C72.3252 42.3483 72.1686 43.1225 72.183 43.8643C72.1891 44.5411 72.3392 45.2496 72.7681 45.7891C73.1081 46.2278 73.6382 46.4984 74.1859 46.5559C74.5855 46.5942 75.0127 46.5773 75.3701 46.3738C75.6184 46.2352 75.7932 46.0025 75.94 45.7644C75.9515 45.9988 75.9433 46.2336 75.9457 46.4679C75.9363 46.7784 75.891 47.1164 75.6764 47.3573C75.4807 47.5748 75.1756 47.6517 74.8927 47.6525C74.5954 47.6567 74.2743 47.6464 74.0169 47.479C73.8886 47.3964 73.8228 47.2516 73.785 47.1094C73.3022 47.1871 72.8199 47.2652 72.3372 47.3429C72.4248 47.7936 72.7389 48.176 73.1365 48.3923C73.7574 48.7377 74.4955 48.7759 75.1879 48.7093C75.7882 48.6493 76.4223 48.4782 76.8503 48.0263C77.234 47.6209 77.354 47.0436 77.3627 46.5016C77.3627 44.6637 77.3627 42.8261 77.3627 40.9881C76.9486 40.9905 76.5345 40.9819 76.1209 40.9926C76.0888 41.1978 76.0485 41.4021 76.0127 41.6073C75.8845 41.3413 75.6345 41.1567 75.3664 41.0481C75.014 40.9038 74.6254 40.8697 74.2475 40.8914C73.6604 40.9359 73.116 41.2685 72.7726 41.7426ZM78.8771 41.7007C78.4741 42.1805 78.2944 42.8092 78.2496 43.4256C78.2064 44.0983 78.2693 44.7998 78.5765 45.4095C78.8146 45.8849 79.2233 46.2743 79.7179 46.4708C80.3532 46.727 81.0662 46.7245 81.7282 46.5843C82.3762 46.4424 82.986 46.053 83.3158 45.4659C82.956 45.2681 82.5966 45.0683 82.2385 44.8676C82.0777 45.0983 81.882 45.3141 81.6283 45.442C81.3425 45.5876 81.009 45.6061 80.697 45.5609C80.3947 45.5169 80.109 45.3503 79.9441 45.09C79.7405 44.7701 79.6846 44.3795 79.6822 44.0066C80.9108 44.0074 82.1398 44.0066 83.3692 44.007C83.4108 43.5164 83.3639 43.0164 83.2229 42.5448C83.0678 42.0333 82.7529 41.5596 82.2981 41.2706C81.7405 40.9095 81.044 40.8314 80.3968 40.9075C79.8174 40.9774 79.2516 41.2447 78.8771 41.7007Z" fill="#FF6600"/>
<path d="M80.023 42.208C80.2006 42.007 80.4654 41.8988 80.7298 41.8828C81.067 41.8577 81.435 41.9523 81.6653 42.2142C81.8688 42.4408 81.9367 42.7541 81.9445 43.0514C81.1978 43.051 80.4511 43.0522 79.7043 43.0506C79.7286 42.7488 79.8166 42.4375 80.023 42.208Z" fill="#FF6600"/>
<path d="M74.5622 41.9462C74.9059 41.8829 75.2801 41.9935 75.5235 42.248C75.8097 42.5408 75.9261 42.9573 75.9507 43.3574C75.9623 43.6505 75.9499 43.9458 75.9035 44.2356C75.8512 44.5412 75.7484 44.8537 75.528 45.0794C75.3274 45.2838 75.0354 45.3771 74.7538 45.3701C74.4914 45.3783 74.2151 45.2949 74.0334 45.0971C73.7891 44.845 73.7081 44.4856 73.6687 44.1477C73.6366 43.8035 73.6271 43.4552 73.6724 43.1119C73.7151 42.8101 73.8085 42.5033 74.0099 42.2681C74.1502 42.1016 74.3479 41.9852 74.5622 41.9462Z" fill="#FF6600"/>
<path d="M52.6698 42.123C53.0259 42.0699 53.4243 42.1287 53.7031 42.3734C53.965 42.5991 54.0925 42.94 54.1497 43.2731C54.2101 43.6476 54.2076 44.0333 54.1349 44.4055C54.0683 44.7324 53.9227 45.0621 53.6513 45.2681C53.3487 45.4935 52.9428 45.5338 52.5818 45.4593C52.287 45.3993 52.0251 45.2073 51.8746 44.9466C51.6575 44.5691 51.6098 44.1209 51.6188 43.6925C51.6328 43.3076 51.7007 42.9071 51.9198 42.5823C52.0896 42.3298 52.3692 42.1624 52.6698 42.123Z" fill="#FF6600"/>
<path d="M62.2866 44.0473C62.7027 43.875 63.1513 43.7985 63.5958 43.7422C63.5975 44.1764 63.595 44.611 63.5971 45.0456C63.2253 45.3795 62.7512 45.6419 62.2401 45.6324C62.0687 45.6369 61.8989 45.5637 61.7821 45.4391C61.5596 45.1887 61.5276 44.7924 61.6998 44.5062C61.8281 44.2845 62.058 44.1468 62.2866 44.0473Z" fill="#FF6600"/>
<path d="M87.8475 10H87.8812V49.9864H48V49.9527C61.2821 49.9523 74.565 49.9531 87.847 49.9523C87.8479 36.6349 87.847 23.3174 87.8475 10Z" fill="#FED9BF"/>
<path d="M82.5008 38.8979C82.9869 38.8996 83.4729 38.8979 83.9589 38.8988C83.9585 38.9835 83.9585 39.0678 83.9589 39.1525C83.7681 39.1521 83.5765 39.1525 83.3857 39.1525C83.3849 39.6825 83.3853 40.2125 83.3853 40.7425C83.2813 40.7421 83.1772 40.7421 83.0732 40.7429C83.0724 40.2125 83.0736 39.6825 83.0724 39.1525C82.882 39.1525 82.6908 39.1517 82.5004 39.1529C82.4988 39.0678 82.4992 38.9827 82.5008 38.8979Z" fill="white"/>
<path d="M84.3223 38.8984C84.4806 38.8984 84.6398 38.8988 84.7989 38.8984C84.9782 39.3602 85.1608 39.8207 85.34 40.2825C85.5181 39.8215 85.6974 39.361 85.8729 38.8993C86.0304 38.8984 86.1883 38.898 86.3462 38.8993C86.345 39.514 86.3483 40.1287 86.3446 40.7434C86.2409 40.7422 86.1373 40.7422 86.0341 40.7426C86.0329 40.2368 86.0358 39.7311 86.0321 39.2257C85.8261 39.7282 85.6349 40.2368 85.4342 40.7418C85.3663 40.7418 85.2993 40.7418 85.2327 40.7414C85.0337 40.2385 84.8454 39.7311 84.6369 39.2319C84.6303 39.7356 84.6357 40.2389 84.6336 40.7426C84.5296 40.7426 84.426 40.7426 84.3223 40.7426C84.3211 40.1279 84.3211 39.5132 84.3223 38.8984Z" fill="white"/>
<path d="M52.7298 40.8644C53.3672 40.8303 54.0271 40.9783 54.553 41.3516C55.0074 41.6703 55.3343 42.1526 55.4954 42.6822C55.6673 43.2472 55.6895 43.8525 55.6061 44.4351C55.5287 44.9368 55.3392 45.4294 55.0119 45.8212C54.6492 46.2641 54.1221 46.556 53.5653 46.6707C52.965 46.7945 52.326 46.753 51.7561 46.5215C51.2833 46.3298 50.8721 45.9886 50.6036 45.5535C50.2722 45.0219 50.1472 44.3829 50.1591 43.7624C50.1558 43.1033 50.3145 42.4224 50.7117 41.8866C51.1735 41.2472 51.9543 40.8956 52.7298 40.8644ZM52.6698 42.123C52.3692 42.1625 52.0896 42.3298 51.9198 42.5823C51.7006 42.9071 51.6328 43.3076 51.6188 43.6925C51.6098 44.121 51.6575 44.5692 51.8746 44.9466C52.0251 45.2073 52.287 45.3993 52.5818 45.4594C52.9428 45.5338 53.3487 45.4935 53.6513 45.2682C53.9227 45.0622 54.0682 44.7324 54.1348 44.4055C54.2076 44.0334 54.2101 43.6477 54.1496 43.2731C54.0925 42.94 53.965 42.5992 53.7031 42.3734C53.4243 42.1288 53.0259 42.07 52.6698 42.123Z" fill="white"/>
<path d="M58.0375 41.6508C58.4569 41.1619 59.1078 40.8396 59.7591 40.9004C59.7583 41.3605 59.7587 41.8211 59.7587 42.2816C59.3454 42.2853 58.9145 42.3009 58.5342 42.4818C58.3685 42.5678 58.2023 42.6989 58.1415 42.8803C58.1357 44.1126 58.1411 45.3457 58.1386 46.5785C57.6411 46.5772 57.1435 46.5793 56.646 46.5772C56.6452 44.7203 56.6472 42.8634 56.6448 41.0065C57.109 41.0024 57.5732 41.0049 58.0375 41.0049C58.0383 41.2199 58.0383 41.4354 58.0375 41.6508Z" fill="white"/>
<path d="M61.6904 41.0513C62.2587 40.8696 62.8697 40.8548 63.4569 40.9391C63.9507 41.018 64.4634 41.2138 64.7731 41.627C65.0111 41.9325 65.0827 42.3342 65.0568 42.7138C65.0584 44.0016 65.0481 45.2903 65.0642 46.5781C64.6287 46.5781 64.1933 46.5777 63.7578 46.5781C63.7151 46.4169 63.6727 46.2565 63.6304 46.0958C63.2492 46.3462 62.8183 46.5218 62.3685 46.597C61.9174 46.669 61.4334 46.6796 61.0103 46.4827C60.6411 46.317 60.3541 45.9864 60.2348 45.5995C60.088 45.1303 60.1148 44.5888 60.3783 44.1653C60.6143 43.7878 61.0041 43.539 61.4038 43.3655C62.1119 43.0641 62.8787 42.9391 63.6386 42.8495C63.6324 42.6213 63.6801 42.3585 63.5165 42.1706C63.2854 41.9078 62.8976 41.8914 62.574 41.9194C62.1217 41.9551 61.7036 42.1973 61.4207 42.5485C61.0889 42.3601 60.7562 42.1726 60.4268 41.9798C60.7319 41.5423 61.1838 41.2134 61.6904 41.0513ZM62.2866 44.0472C62.058 44.1467 61.8282 44.2845 61.6999 44.5061C61.5276 44.7923 61.5597 45.1887 61.7821 45.4391C61.8989 45.5637 62.0687 45.6369 62.2402 45.6324C62.7513 45.6418 63.2254 45.3795 63.5971 45.0456C63.595 44.611 63.5975 44.1764 63.5958 43.7421C63.1514 43.7985 62.7027 43.875 62.2866 44.0472Z" fill="white"/>
<path d="M68.9589 40.9317C69.4243 40.8432 69.9276 40.8593 70.3647 41.0579C70.69 41.2051 70.9363 41.495 71.0551 41.8301C71.1464 42.0793 71.1826 42.3461 71.1883 42.6109C71.1883 43.9304 71.1883 45.2499 71.1883 46.5694C70.699 46.5694 70.2097 46.5702 69.7204 46.5694C69.7204 45.3288 69.7208 44.0887 69.72 42.8482C69.7122 42.6043 69.6858 42.3367 69.521 42.1438C69.354 41.9625 69.0851 41.9489 68.8561 41.9744C68.4013 42.0312 68.007 42.2927 67.6624 42.5797C67.6624 43.9094 67.6624 45.2392 67.6624 46.5694C67.1756 46.5694 66.6896 46.5698 66.2031 46.5694C66.2031 44.7651 66.2023 42.9608 66.2031 41.1562C66.6098 41.099 67.0169 41.0427 67.4235 40.9872C67.4622 41.2055 67.5115 41.4226 67.5543 41.6405C67.9803 41.333 68.4371 41.0394 68.9589 40.9317Z" fill="white"/>
<path d="M72.7727 41.7427C73.116 41.2686 73.6604 40.9359 74.2476 40.8915C74.6255 40.8697 75.014 40.9038 75.3664 41.0482C75.6345 41.1567 75.8845 41.3414 76.0128 41.6074C76.0486 41.4022 76.0889 41.1978 76.1209 40.9927C76.5346 40.982 76.9487 40.9906 77.3627 40.9881C77.3627 42.8261 77.3627 44.6637 77.3627 46.5017C77.3541 47.0437 77.234 47.621 76.8504 48.0264C76.4223 48.4783 75.7883 48.6493 75.188 48.7094C74.4955 48.776 73.7575 48.7377 73.1366 48.3923C72.7389 48.1761 72.4248 47.7937 72.3372 47.343C72.82 47.2653 73.3023 47.1872 73.785 47.1094C73.8228 47.2517 73.8886 47.3965 74.0169 47.4791C74.2743 47.6465 74.5954 47.6567 74.8927 47.6526C75.1756 47.6518 75.4807 47.5749 75.6764 47.3574C75.8911 47.1164 75.9363 46.7784 75.9458 46.468C75.9433 46.2336 75.9515 45.9988 75.94 45.7645C75.7932 46.0025 75.6185 46.2353 75.3701 46.3738C75.0128 46.5774 74.5856 46.5942 74.1859 46.556C73.6382 46.4984 73.1082 46.2279 72.7681 45.7891C72.3393 45.2497 72.1892 44.5412 72.183 43.8644C72.1686 43.1226 72.3253 42.3483 72.7727 41.7427ZM74.5621 41.9462C74.3479 41.9853 74.1501 42.1016 74.0099 42.2682C73.8084 42.5034 73.7151 42.8101 73.6723 43.1119C73.6271 43.4553 73.6366 43.8035 73.6686 44.1477C73.7081 44.4857 73.7891 44.8451 74.0334 45.0971C74.2151 45.2949 74.4914 45.3784 74.7538 45.3701C75.0354 45.3771 75.3274 45.2838 75.528 45.0794C75.7484 44.8537 75.8512 44.5412 75.9034 44.2357C75.9499 43.9458 75.9622 43.6506 75.9507 43.3574C75.926 42.9573 75.8097 42.5408 75.5235 42.248C75.2801 41.9935 74.9059 41.8829 74.5621 41.9462Z" fill="white"/>
<path d="M78.8771 41.7007C79.2517 41.2447 79.8175 40.9775 80.3968 40.9076C81.044 40.8315 81.7406 40.9096 82.2981 41.2706C82.7529 41.5597 83.0679 42.0334 83.2229 42.5449C83.3639 43.0165 83.4108 43.5165 83.3693 44.0071C82.1398 44.0067 80.9108 44.0075 79.6822 44.0067C79.6847 44.3796 79.7406 44.7702 79.9441 45.0901C80.109 45.3504 80.3948 45.517 80.697 45.561C81.0091 45.6062 81.3426 45.5877 81.6283 45.4421C81.882 45.3142 82.0778 45.0984 82.2385 44.8677C82.5967 45.0684 82.956 45.2682 83.3158 45.466C82.9861 46.0531 82.3763 46.4425 81.7282 46.5844C81.0662 46.7246 80.3532 46.7271 79.718 46.4709C79.2233 46.2744 78.8146 45.885 78.5765 45.4096C78.2694 44.7998 78.2065 44.0984 78.2496 43.4257C78.2944 42.8093 78.4741 42.1806 78.8771 41.7007ZM80.0231 42.2081C79.8167 42.4376 79.7287 42.7489 79.7044 43.0507C80.4511 43.0523 81.1978 43.0511 81.9445 43.0515C81.9367 42.7542 81.8689 42.4409 81.6653 42.2143C81.4351 41.9524 81.0671 41.8578 80.7299 41.8829C80.4655 41.8989 80.2007 42.0071 80.0231 42.2081Z" fill="white"/>
</g>
<defs>
<clipPath id="clip0">
<rect width="39.8947" height="40" fill="white" transform="translate(48 10)"/>
</clipPath>
</defs>
</svg>