<svg width="136" height="60" viewBox="0 0 136 60" fill="none" xmlns="http://www.w3.org/2000/svg">
<path d="M0.821777 21.1156C0.821777 8.79815 9.44592 2.19954 19.7939 1.31972C30.1418 0.439908 43.9391 0 71.1025 0C98.2659 0 112.925 0.879815 123.273 2.19954C133.621 3.51926 135.785 15 135.777 21.9954C135.77 28.9908 135.683 37.6209 134.484 45.3105C133.285 53 128.016 59.3875 117.237 59.8274C106.458 60.2673 33.5903 59.8274 22.812 58.9476C12.0338 58.0678 4.70226 54.5485 2.9776 45.3105C1.25294 36.0724 0.821777 33.433 0.821777 21.1156Z" fill="white"/>
<g clip-path="url(#clip0)">
<path d="M36.617 25.6617H37.1195C37.5457 25.6475 37.9707 25.7142 38.3721 25.8583C38.78 26.062 39.1258 26.3713 39.3734 26.7541C39.8364 27.4466 40.2246 28.1862 40.5313 28.9607L41.6965 31.7098H46.4848L44.9883 28.3453C44.6502 27.4975 44.2268 26.6861 43.7247 25.9239C43.3971 25.5108 42.9974 25.1605 42.545 24.8898C42.926 24.6829 43.2912 24.448 43.6373 24.187C44.0158 23.8604 44.3221 23.4586 44.5367 23.0072C44.841 22.3912 44.9886 21.7095 44.9664 21.0227C44.9484 20.292 44.772 19.574 44.4493 18.9181C44.0732 18.139 43.4867 17.4807 42.7562 17.0174C41.8544 16.4568 40.8059 16.1779 39.7448 16.2163H32.1564V31.7098H36.617V25.6617ZM36.617 19.1912H37.5564C38.5687 19.1912 39.297 19.3332 39.7412 19.6172C40.1891 19.8976 40.4148 20.3964 40.4148 21.1138C40.4148 21.8311 40.2182 22.3008 39.8031 22.5594C39.388 22.8179 38.6561 22.9235 37.5674 22.9235H36.617V19.1912Z" fill="#133B89"/>
<path d="M50.2064 30.7922C51.6262 31.5765 53.2315 31.9627 54.8527 31.91C56.4575 31.9608 58.0477 31.5918 59.4662 30.8395C60.6786 30.1676 61.6674 29.1548 62.31 27.9265C62.9529 26.6903 63.2806 25.3144 63.264 23.9211C63.27 22.8816 63.0899 21.8494 62.7324 20.8734C62.3809 19.9019 61.8205 19.0195 61.0907 18.2884C60.3608 17.5573 59.4793 16.9953 58.5085 16.6422C57.346 16.2015 56.1104 15.9853 54.8672 16.005C53.2394 15.9509 51.627 16.3358 50.1991 17.1192C48.992 17.7909 48.0102 18.8044 47.3772 20.0322C46.7651 21.2432 46.4505 22.5825 46.4596 23.9393C46.4521 25.294 46.7679 26.6309 47.3808 27.8391C48.0147 29.0741 48.9972 30.0959 50.2064 30.7776V30.7922ZM52.0271 21.0664C52.3929 20.6943 52.8338 20.4045 53.3204 20.2162C53.8069 20.0278 54.3281 19.9452 54.849 19.974C55.4141 19.9629 55.9758 20.0631 56.5022 20.2689C56.9603 20.4514 57.3728 20.7322 57.7107 21.0914C58.0485 21.4506 58.3035 21.8796 58.4575 22.3481C58.6261 22.8627 58.7085 23.4015 58.7015 23.943C58.7152 24.6555 58.5618 25.3613 58.2536 26.0039C57.9656 26.5941 57.5079 27.0848 56.9391 27.4131C56.3009 27.7679 55.5789 27.944 54.849 27.9229C54.3292 27.9513 53.8093 27.8685 53.3239 27.6802C52.8386 27.4918 52.3989 27.2021 52.0343 26.8305C51.3273 26.0436 50.9573 25.0107 51.0039 23.9539C50.9563 22.8993 51.3236 21.868 52.0271 21.0809" fill="#133B89"/>
<path d="M69.2708 22.7341L73.3089 27.9338H73.6621L77.6857 22.7341V31.7098H82.1499V16.2162H78.1045L73.531 22.0313L68.9831 16.2162H64.9377V31.7098H69.2708V22.7341Z" fill="#133B89"/>
<path d="M88.8444 28.5674H95.2712L96.4765 31.7098H101.046L94.5248 16.2162H89.5909L83.0366 31.7098H87.6137L88.8444 28.5674ZM92.0779 20.2179L94.2626 25.8765H89.8931L92.0779 20.2179Z" fill="#133B89"/>
<path d="M29.5748 24.3036C29.976 23.8587 30.2854 23.339 30.4852 22.7742C30.6718 22.2367 30.7678 21.6719 30.7692 21.1029C30.769 20.5207 30.6731 19.9425 30.4852 19.3915C30.2889 18.8142 29.9795 18.2819 29.5748 17.8258C29.1021 17.3146 28.5194 16.9174 27.8707 16.6642C27.0661 16.3498 26.2073 16.1976 25.3437 16.2163H17.9556V27.923C17.9897 29.0806 18.4733 30.1793 19.304 30.9862C20.1347 31.7931 21.2471 32.2447 22.4052 32.2452V25.8984H25.3182C25.745 25.9004 26.1712 25.8675 26.5926 25.8001C27.0299 25.7408 27.4588 25.6308 27.8707 25.4724C28.5189 25.2218 29.1016 24.8271 29.5748 24.3181V24.3036ZM25.9663 22.2426C25.7558 22.5245 25.446 22.7158 25.0997 22.7779C24.5704 22.8867 24.0305 22.9355 23.4903 22.9235H22.4198V19.1912H23.3592C24.4346 19.1912 25.1798 19.3272 25.5949 19.5991C26.0137 19.8721 26.2212 20.3746 26.2212 21.1029C26.2444 21.497 26.152 21.8893 25.9554 22.2317" fill="#133B89"/>
<path d="M113.506 16.1944V24.7805L105.848 16.1944H101.887V31.688C103.055 31.6899 104.177 31.2283 105.005 30.4044C105.834 29.5805 106.302 28.4616 106.307 27.293V23.0582L113.983 31.688H117.955V16.1944H113.506Z" fill="#133B89"/>
<path d="M20.1477 35.9008H18.2906V44.0755H20.1477V35.9008Z" fill="#FF963B"/>
<path d="M21.7217 40.0373C21.7217 39.3091 21.6999 38.6682 21.6744 38.1475H23.2765L23.3603 38.9449H23.3967C23.5994 38.6501 23.8715 38.4096 24.1889 38.2445C24.5064 38.0794 24.8595 37.9948 25.2173 37.9982C26.4299 37.9982 27.3402 38.7993 27.3402 40.5471V44.0645H25.5086V40.7874C25.5086 40.0227 25.2392 39.502 24.5728 39.502C24.3641 39.5035 24.1613 39.5713 23.9937 39.6957C23.8262 39.8201 23.7025 39.9946 23.6407 40.1939C23.588 40.3409 23.5633 40.4965 23.5678 40.6527V44.0755H21.7217V40.0373Z" fill="#FF963B"/>
<path d="M30.83 36.5309V38.1439H32.1554V39.5021H30.83V41.6505C30.83 42.3787 31.0011 42.6919 31.5582 42.6919C31.7415 42.6975 31.9248 42.6816 32.1044 42.6445V44.0391C31.7162 44.1622 31.3099 44.2189 30.9028 44.2066C30.3946 44.2186 29.9023 44.0287 29.5337 43.6787C29.1914 43.3145 29.0239 42.7574 29.0239 41.9199V39.5021H28.2337V38.1439H29.0239V37.0297L30.83 36.5309Z" fill="#FF963B"/>
<path d="M34.5929 41.6977C34.6548 42.4623 35.4049 42.8228 36.2679 42.8228C36.8219 42.8309 37.3738 42.7511 37.9028 42.5861L38.1468 43.8351C37.4594 44.0886 36.7309 44.2121 35.9984 44.1992C33.9848 44.1992 32.8342 43.0231 32.8342 41.1697C32.8342 39.6659 33.7663 38.0018 35.8309 38.0018C37.7462 38.0018 38.4745 39.4947 38.4745 40.9621C38.4747 41.2062 38.454 41.4499 38.4126 41.6904L34.5929 41.6977ZM36.7776 40.4342C36.7776 39.9863 36.5847 39.2362 35.7362 39.2362C34.9607 39.2362 34.6439 39.9389 34.5965 40.4342H36.7776ZM37.7972 35.5585L36.3188 37.4046H35.0444L36.0858 35.5585H37.7972Z" fill="#FF963B"/>
<path d="M39.5778 40.0955C39.5778 39.2216 39.556 38.639 39.5305 38.1438H41.1181L41.18 39.2362H41.2273C41.3338 38.8905 41.5453 38.5866 41.8324 38.3667C42.1195 38.1468 42.468 38.0218 42.8295 38.0091C42.9587 38.0036 43.0881 38.0121 43.2155 38.0345V39.7824C43.0528 39.7388 42.885 39.7179 42.7166 39.7204C42.4286 39.6953 42.1413 39.7762 41.9087 39.9478C41.6761 40.1194 41.5141 40.37 41.4531 40.6526C41.4292 40.7897 41.417 40.9286 41.4167 41.0677V44.0718H39.5778V40.0955Z" fill="#FF963B"/>
<path d="M46.091 36.4945C46.0909 36.6217 46.0645 36.7475 46.0136 36.8641C45.9626 36.9806 45.8881 37.0854 45.7948 37.1718C45.7015 37.2583 45.5914 37.3246 45.4713 37.3666C45.3513 37.4085 45.2238 37.4253 45.097 37.4158C44.8507 37.4158 44.6145 37.3179 44.4404 37.1438C44.2663 36.9697 44.1685 36.7335 44.1685 36.4872C44.1685 36.241 44.2663 36.0048 44.4404 35.8307C44.6145 35.6566 44.8507 35.5587 45.097 35.5587C45.2242 35.5507 45.3517 35.569 45.4714 35.6126C45.5912 35.6561 45.7007 35.724 45.793 35.8118C45.8853 35.8997 45.9585 36.0057 46.0079 36.1232C46.0573 36.2407 46.0819 36.3671 46.0801 36.4945H46.091ZM44.1721 38.144H46.0291V44.0756H44.1721V38.144Z" fill="#FF963B"/>
<path d="M47.5111 40.0372C47.5111 39.3089 47.4856 38.6681 47.4601 38.1474H49.015L49.0987 38.9484H49.1351C49.3283 38.6509 49.5951 38.4084 49.9096 38.2444C50.2242 38.0805 50.5757 38.0006 50.9303 38.0126C51.2698 37.9967 51.6062 38.0843 51.8949 38.2638C52.1835 38.4432 52.4109 38.7061 52.547 39.0176H52.5725C52.7724 38.723 53.0331 38.4747 53.3371 38.2894C53.6794 38.0903 54.07 37.9895 54.4659 37.9981C55.6056 37.9981 56.465 38.7991 56.465 40.5688V44.0644H54.6698V40.8492C54.6698 39.9862 54.3931 39.4873 53.7959 39.4873C53.6047 39.492 53.4199 39.5568 53.2676 39.6725C53.1153 39.7882 53.0033 39.9489 52.9475 40.1318C52.8994 40.285 52.8749 40.4446 52.8747 40.6052V44.0753H51.0905V40.7654C51.0905 40.0153 50.8247 39.5019 50.2421 39.5019C50.047 39.5104 49.8593 39.5795 49.7053 39.6996C49.5513 39.8197 49.4385 39.9848 49.3827 40.1719C49.3285 40.3185 49.3037 40.4745 49.3099 40.6307V44.0899H47.5111V40.0372Z" fill="#FF963B"/>
<path d="M61.6905 42.4989C61.3756 42.4996 61.0676 42.4069 60.8054 42.2325C60.5433 42.0581 60.3388 41.8098 60.2178 41.5191C60.0968 41.2284 60.0647 40.9084 60.1257 40.5995C60.1867 40.2906 60.338 40.0067 60.5604 39.7838C60.7828 39.5609 61.0663 39.409 61.3751 39.3473C61.6838 39.2856 62.004 39.3169 62.2949 39.4372C62.5859 39.5575 62.8346 39.7615 63.0096 40.0232C63.1846 40.285 63.2781 40.5928 63.2781 40.9077C63.282 41.1174 63.2437 41.3258 63.1653 41.5204C63.087 41.715 62.9702 41.8918 62.8221 42.0403C62.6739 42.1888 62.4973 42.306 62.3029 42.3847C62.1085 42.4635 61.9002 42.5024 61.6905 42.4989Z" fill="#FF963B"/>
<path d="M73.0069 43.8424C72.3405 44.1075 71.6263 44.2315 70.9096 44.2065C68.0839 44.2065 66.6274 42.4368 66.6274 40.1064C66.6274 37.3172 68.6156 35.766 71.0916 35.766C71.7812 35.7414 72.468 35.8656 73.1052 36.1302L72.7411 37.5867C72.2493 37.3839 71.7219 37.2812 71.1899 37.2844C69.7334 37.2844 68.5828 38.1693 68.5828 39.9899C68.5828 41.6248 69.5514 42.6553 71.2009 42.6553C71.7257 42.6551 72.2466 42.5652 72.7411 42.3895L73.0069 43.8424Z" fill="#FF963B"/>
<path d="M74.2211 36.0102C75.0482 35.8899 75.8833 35.8327 76.719 35.839C78.2738 35.839 79.2679 36.1194 80.069 36.7129C80.9174 37.3429 81.449 38.3515 81.449 39.7934C81.449 41.3592 80.881 42.437 80.0908 43.1034C79.2315 43.8316 77.9061 44.1593 76.3221 44.1593C75.62 44.1639 74.9182 44.1238 74.2211 44.0392V36.0102ZM76.0782 42.681C76.2905 42.7102 76.5049 42.7212 76.719 42.7137C78.394 42.7137 79.4864 41.8071 79.4864 39.8553C79.4864 38.1549 78.5032 37.2591 76.9157 37.2591C76.6347 37.2527 76.3538 37.2771 76.0782 37.332V42.681Z" fill="#FF963B"/>
<path d="M82.6645 36.0102C83.4916 35.8898 84.3266 35.8326 85.1624 35.839C86.7136 35.839 87.7113 36.1194 88.5087 36.7129C89.3571 37.3429 89.8924 38.3515 89.8924 39.7935C89.8924 41.3592 89.3207 42.437 88.5342 43.1034C87.6749 43.8316 86.3495 44.1593 84.7619 44.1593C84.0609 44.164 83.3603 44.1239 82.6645 44.0392V36.0102ZM84.5215 42.681C84.7338 42.7102 84.9482 42.7212 85.1624 42.7137C86.8374 42.7137 87.9261 41.8071 87.9261 39.8554C87.9261 38.1549 86.9466 37.2591 85.3554 37.2591C85.0756 37.2527 84.796 37.2771 84.5215 37.332V42.681Z" fill="#FF963B"/>
<path d="M94.7857 42.4989C94.4708 42.4996 94.1628 42.4069 93.9007 42.2325C93.6385 42.0581 93.434 41.8098 93.313 41.5191C93.192 41.2284 93.16 40.9084 93.221 40.5995C93.2819 40.2906 93.4332 40.0067 93.6556 39.7838C93.878 39.5609 94.1615 39.409 94.4703 39.3473C94.7791 39.2856 95.0992 39.3169 95.3902 39.4372C95.6811 39.5575 95.9298 39.7615 96.1049 40.0232C96.2799 40.285 96.3733 40.5928 96.3733 40.9077C96.3772 41.1174 96.3389 41.3258 96.2605 41.5204C96.1822 41.715 96.0655 41.8918 95.9173 42.0403C95.7691 42.1888 95.5926 42.306 95.3982 42.3847C95.2037 42.4635 94.9954 42.5024 94.7857 42.4989Z" fill="#FF963B"/>
<path d="M106.11 43.8424C105.444 44.1075 104.73 44.2315 104.013 44.2065C101.188 44.2065 99.731 42.4368 99.731 40.1064C99.731 37.3172 101.719 35.766 104.195 35.766C104.885 35.7414 105.572 35.8656 106.209 36.1302L105.845 37.5867C105.353 37.3839 104.826 37.2812 104.294 37.2844C102.837 37.2844 101.686 38.1693 101.686 39.9899C101.686 41.6248 102.659 42.6553 104.304 42.6553C104.829 42.6551 105.35 42.5652 105.845 42.3895L106.11 43.8424Z" fill="#FF963B"/>
<path d="M107.323 36.0102C108.152 35.8898 108.988 35.8326 109.825 35.839C111.376 35.839 112.374 36.1194 113.171 36.7129C114.02 37.3429 114.555 38.3515 114.555 39.7934C114.555 41.3592 113.983 42.437 113.193 43.1034C112.334 43.8316 111.008 44.1593 109.424 44.1593C108.722 44.1638 108.02 44.1237 107.323 44.0392V36.0102ZM109.18 42.681C109.394 42.7103 109.61 42.7213 109.825 42.7137C111.496 42.7137 112.589 41.8071 112.589 39.8553C112.589 38.1549 111.606 37.2591 110.018 37.2591C109.737 37.2527 109.456 37.2771 109.18 37.332V42.681Z" fill="#FF963B"/>
<path d="M117.624 35.9008H115.767V44.0755H117.624V35.9008Z" fill="#FF963B"/>
</g>
<defs>
<clipPath id="clip0">
<rect width="100" height="28.2097" fill="white" transform="translate(17.9556 16)"/>
</clipPath>
</defs>
</svg>