<svg width="136" height="60" viewBox="0 0 136 60" fill="none" xmlns="http://www.w3.org/2000/svg">
<path d="M0.7771 21.1156C0.7771 8.79815 9.40124 2.19954 19.7492 1.31972C30.0972 0.439908 43.8944 0 71.0578 0C98.2212 0 112.881 0.879815 123.229 2.19954C133.577 3.51926 135.74 15 135.733 21.9954C135.725 28.9908 135.638 37.6209 134.439 45.3105C133.24 53 127.972 59.3875 117.192 59.8274C106.413 60.2673 33.5456 59.8274 22.7674 58.9476C11.9891 58.0678 4.65758 54.5485 2.93292 45.3105C1.20826 36.0724 0.7771 33.433 0.7771 21.1156Z" fill="white"/>
<g clip-path="url(#clip0)">
<path d="M31.3518 10.1556C30.5763 10.1556 29.9558 10.4669 29.9558 11.4008V48.7549C29.9558 49.3774 30.4211 50 31.1967 50H97.585C98.2055 50 98.6708 50 98.981 49.2218C98.981 49.2218 105.651 28.0545 105.806 27.7432C106.116 26.965 105.961 26.4981 105.186 26.0311C83.6249 12.0233 51.2063 10 36.4706 10C34.4541 10 32.5927 10 31.3518 10.1556Z" fill="url(#paint0_linear)"/>
<path d="M45.1566 33.9688C42.6748 32.7237 41.1237 32.1011 41.4339 31.0116C41.8993 29.6108 44.3811 29.1439 46.5526 29.1439C47.6384 29.1439 48.414 29.2995 49.3447 29.4552L50.1202 26.9649C49.0344 26.8093 48.1038 26.6536 46.7077 26.6536C42.3646 26.498 38.3317 27.7431 37.2459 30.2334C36.005 33.3462 39.5726 35.0583 42.5197 36.4591C44.8464 37.5486 46.8629 38.6381 46.0873 40.0388C45.622 41.1283 43.9157 41.5953 41.4339 41.5953C39.2623 41.5953 36.6254 40.9727 34.6089 39.8832L33.368 42.5291C34.9192 43.3073 38.0214 44.2412 40.8135 44.2412C45.9322 44.3968 49.1896 42.996 50.5856 40.3501C52.1367 37.2373 48.2589 35.5252 45.1566 33.9688Z" fill="white"/>
<path d="M51.9822 38.6381C51.9822 38.6381 52.1374 38.6381 51.9822 38.6381C52.1374 38.6381 52.2925 38.6381 52.2925 38.6381C52.2925 38.4825 54.7743 30.856 54.7743 30.856C57.2561 34.4358 59.7379 39.105 61.1339 44.2412H65.1668L67.1833 37.8599C67.1833 37.8599 67.1833 37.7043 67.3384 37.7043C67.3384 37.7043 67.4935 37.7043 67.4935 37.8599C68.114 41.9066 71.9918 44.5525 77.5759 44.5525C81.1435 44.5525 84.4008 43.6187 85.3315 43.1517L87.348 36.4591H95.4138L96.1894 33.8132H88.1235L89.5196 29.4552H99.1365L99.9121 26.8093H86.2622L81.6088 41.284C80.6781 41.5953 79.4372 41.5953 78.1963 41.5953C75.4043 41.5953 73.2327 40.9728 71.9918 39.572C71.0611 38.4825 70.7509 37.0817 70.906 35.5253C71.5265 31.7899 75.0941 29.4552 79.9026 29.4552C80.9883 29.4552 81.919 29.4552 82.8497 29.6109L83.7804 26.8093C82.5395 26.6537 81.1435 26.498 79.7474 26.498C75.4043 26.498 71.6816 28.0545 69.3549 30.5447C69.3549 30.7004 69.1998 30.5447 69.1998 30.5447H69.0447L70.2856 26.6537H67.1833L63.3055 38.7938C62.0646 35.214 59.5828 30.3891 56.4805 26.6537H52.6027L49.8107 35.5253C51.2067 36.7704 51.672 37.5486 51.9822 38.6381Z" fill="white"/>
</g>
<defs>
<linearGradient id="paint0_linear" x1="29.9558" y1="29.9754" x2="105.81" y2="29.9754" gradientUnits="userSpaceOnUse">
<stop stop-color="#832667"/>
<stop offset="0.2472" stop-color="#B01774"/>
<stop offset="0.8146" stop-color="#DC1018"/>
<stop offset="1" stop-color="#DC1018"/>
</linearGradient>
<clipPath id="clip0">
<rect width="76" height="40" fill="white" transform="translate(29.9558 10)"/>
</clipPath>
</defs>
</svg>