<svg width="170" height="76" viewBox="0 0 170 76" fill="none" xmlns="http://www.w3.org/2000/svg">
<path d="M0.474548 26.8945C0.474548 11.4977 11.2547 3.24942 24.1897 2.14965C37.1246 1.04988 54.3712 0.5 88.3254 0.5C122.28 0.5 140.604 1.59977 153.539 3.24942C166.474 4.89908 169.178 19.25 169.169 27.9942C169.159 36.7384 169.051 47.5262 167.552 57.1381C166.053 66.75 159.468 74.7344 145.994 75.2843C132.52 75.8342 41.4352 75.2843 27.9624 74.1845C14.4895 73.0847 5.32515 68.6857 3.16933 57.1381C1.0135 45.5905 0.474548 42.2912 0.474548 26.8945Z" fill="white"/>
<g clip-path="url(#clip0)">
<path d="M61.247 27.3614C59.7892 26.7275 58.2289 26.3144 56.84 26.3144C54.8097 26.3144 53.796 26.7599 53.796 27.5635C53.796 29.8625 62.8503 28.0158 62.8503 32.9219C62.8503 34.953 60.9905 36.5209 57.264 36.5209C55.0538 36.5209 53.3261 36.0529 51.3427 34.953L52.1611 33.123C53.9004 34.1131 55.5238 34.5526 57.2774 34.5526C59.4867 34.5526 60.6717 33.8992 60.6717 32.9219C60.6717 30.407 51.6136 32.2841 51.6136 27.6871C51.6136 25.7041 53.4591 24.3402 56.796 24.3402C58.7927 24.3402 60.4717 24.7896 62.0769 25.6128L61.247 27.3614Z" fill="black"/>
<path d="M71.3409 36.5818C67.7245 36.5818 64.7256 34.1121 64.7256 30.4227C64.7256 26.7756 67.7245 24.2588 71.3409 24.2588C74.9783 24.2588 77.9294 26.7756 77.9294 30.4227C77.9294 34.1131 74.9783 36.5818 71.3409 36.5818ZM71.3409 26.2467C68.7076 26.2467 66.908 28.0747 66.908 30.4227C66.908 32.8257 68.6291 34.6135 71.3409 34.6135C74.0364 34.6135 75.7489 32.809 75.7489 30.4227C75.7489 28.0747 74.0364 26.2467 71.3409 26.2467Z" fill="black"/>
<path d="M86.57 36.5681C82.7689 36.5681 79.9068 34.1023 79.9068 30.408C79.9068 26.7766 82.8139 24.2588 86.57 24.2588C88.8099 24.2588 90.4151 24.9113 91.8538 25.9975L90.7339 27.7048C89.6867 26.8806 88.3762 26.2791 86.6312 26.2791C83.8582 26.2791 82.1352 28.0747 82.1352 30.407C82.1352 32.809 83.8745 34.5527 86.659 34.5527C88.4002 34.5527 89.7814 33.9767 90.8219 33.1515L91.9466 34.8608C90.5041 35.9479 88.8099 36.5681 86.57 36.5681Z" fill="black"/>
<path d="M94.2413 24.616H96.352V36.2561H94.2413V24.616Z" fill="black"/>
<path d="M99.4664 36.2561V24.616H109.806V26.5411H101.574V29.3689H107.972V31.2892H101.574V34.3319H110.169V36.2561H99.4664Z" fill="black"/>
<path d="M118.026 26.5283V36.2561H115.925V26.5283H111.295V24.616H122.652V26.5283H118.026Z" fill="black"/>
<path d="M124.345 36.2561V24.616H134.685V26.5411H126.453V29.3689H132.856V31.2892H126.453V34.3319H135.048V36.2561H124.345Z" fill="black"/>
<path d="M57.8354 50.0313C58.9898 50.0313 60.1806 49.7654 61.0765 49.3288V45.9456H63.123V50.464C61.6824 51.457 59.702 52.0624 57.7454 52.0624C53.9501 52.0624 51.087 49.5976 51.087 45.9014C51.087 42.27 53.9931 39.7581 57.7454 39.7581C59.9432 39.7581 61.5925 40.3939 63.0331 41.4801L61.9141 43.1884C60.864 42.3651 59.5478 41.8029 57.8038 41.8029C55.0336 41.744 53.3126 43.5769 53.3126 45.9014C53.3126 48.3103 55.0537 50.0313 57.8354 50.0313Z" fill="black"/>
<path d="M65.8961 51.7504V40.1143H76.2378V42.0364H67.9972V44.8633H74.4038V46.7855H67.9972V49.8282H76.5987V51.7504H65.8961Z" fill="black"/>
<path d="M80.7283 51.7504H78.6684V40.1143H80.8173L88.2214 48.8843L88.2721 48.8686C88.1477 46.6638 88.1314 44.879 88.1314 43.1531V40.1143H90.1894V51.7504H88.0577L80.6805 42.9823L80.647 43C80.7283 44.723 80.7283 47.7324 80.7283 48.7116V51.7504" fill="black"/>
<path d="M93.1537 51.7504V40.1143H103.492V42.0364H95.2548V44.8633H101.66V46.7855H95.2548V49.8282H103.859V51.7504H93.1537Z" fill="black"/>
<path d="M111.58 47.4694H108.188V51.7504H106.082V40.1143H113.379C115.8 40.1143 117.302 41.6371 117.302 43.8242C117.302 45.9014 115.827 47.1417 114.045 47.4066L117.424 51.7504H114.787L111.58 47.4694ZM113.154 45.5305C114.47 45.5305 115.215 44.8319 115.215 43.8252C115.215 42.7213 114.561 42.0374 113.379 42.0374H108.188V45.5315H113.154V45.5305Z" fill="black"/>
<path d="M121.738 48.9255L120.436 51.7504H118.158L123.69 40.1143H125.902L131.44 51.7504H129.171L127.864 48.9255H121.738ZM122.615 47.0357H126.988L124.809 42.32L122.615 47.0357Z" fill="black"/>
<path d="M132.989 51.7504V40.1143H135.092V49.8282H142.673V51.7504H132.989Z" fill="black"/>
<path d="M144.096 51.7504V40.1143H154.442V42.0364H146.203V44.8633H152.608V46.7855H146.203V49.8282H154.803V51.7504H144.096Z" fill="black"/>
<path fill-rule="evenodd" clip-rule="evenodd" d="M16.0532 24.25H43.1873V38.4353H16.0532V24.25Z" fill="#ED1A3A"/>
<path fill-rule="evenodd" clip-rule="evenodd" d="M16.0532 38.1576H43.1873V52.0643H16.0532V38.1576Z" fill="black"/>
<path d="M20.7942 38.1567H38.4471" stroke="white" stroke-width="1.725" stroke-miterlimit="10"/>
</g>
<defs>
<clipPath id="clip0">
<rect width="138.75" height="27.8143" fill="white" transform="translate(16.0532 24.25)"/>
</clipPath>
</defs>
</svg>