<svg width="136" height="60" viewBox="0 0 136 60" fill="none" xmlns="http://www.w3.org/2000/svg">
<path d="M0.732666 21.1156C0.732666 8.79815 9.35681 2.19954 19.7048 1.31972C30.0527 0.439908 43.85 0 71.0134 0C98.1768 0 112.836 0.879815 123.184 2.19954C133.532 3.51926 135.696 15 135.688 21.9954C135.681 28.9908 135.594 37.6209 134.395 45.3105C133.196 53 127.927 59.3875 117.148 59.8274C106.369 60.2673 33.5012 59.8274 22.7229 58.9476C11.9446 58.0678 4.61315 54.5485 2.88849 45.3105C1.16383 36.0724 0.732666 33.433 0.732666 21.1156Z" fill="white"/>
<g clip-path="url(#clip0)">
<path d="M37.6942 27.8557H33.6407V41.459H37.6942V27.8557Z" fill="#7E0C6E"/>
<path d="M37.6916 22.2432H33.6447V25.9526H37.6916V22.2432Z" fill="#7E0C6E"/>
<path d="M123.489 27.8557H119.437V41.459H123.489V27.8557Z" fill="#7E0C6E"/>
<path d="M123.487 22.2432H119.44V25.9526H123.487V22.2432Z" fill="#7E0C6E"/>
<path d="M87.7015 30.8438C90.2539 30.8438 92.0615 31.959 92.0034 34.2983V41.4598H96.0556V34.1015C96.0859 32.4455 95.5954 31.1639 94.51 29.9597C93.0566 28.3476 90.7676 27.4441 87.7009 27.4441C84.6368 27.4441 82.3464 28.3476 80.8944 29.9597C79.8076 31.1639 79.3178 32.4455 79.3481 34.1015V41.4591H83.4003V34.2977C83.3428 31.9583 85.1505 30.8438 87.7015 30.8438Z" fill="#7E0C6E"/>
<path d="M27.4055 27.8552L22.6422 37.882L17.713 27.8552H13.1549L20.1621 41.4592H25.1003L31.9191 27.8552H27.4055Z" fill="#7E0C6E"/>
<path d="M53.7775 27.8552L49.0142 37.882L44.0837 27.8552H39.5256L46.5328 41.4592H51.4723L58.2904 27.8552H53.7775Z" fill="#7E0C6E"/>
<path d="M67.7437 30.5869C70.1437 30.5869 71.4847 31.4743 71.9649 32.4623L62.4047 34.2874C62.4718 33.5504 62.8184 32.8166 63.2972 32.3074C64.3052 31.231 65.7799 30.5869 67.7437 30.5869ZM65.5204 37.9084C65.1055 37.8329 64.2691 37.6387 63.5631 37.074L76.6966 34.4823C76.6753 33.8756 76.5578 33.2748 76.4029 32.6888C76.1597 31.7821 74.5792 27.2705 67.2938 27.4493C64.5434 27.517 62.2685 28.427 60.77 29.8235C59.3761 31.1245 58.5416 32.8211 58.5416 34.7895C58.5416 36.7223 59.4896 38.5041 61.2353 39.7722C62.8777 40.9667 65.0332 41.4598 67.9773 41.4598H75.5588V38.1136H68.2793C67.1712 38.1136 66.2297 38.0349 65.5204 37.9084Z" fill="#7E0C6E"/>
<path d="M112.244 34.0718C112.211 36.1847 111.23 38.3156 107.327 38.3156C105.667 38.3156 104.329 37.9123 103.422 36.8874C102.92 36.3202 102.665 35.6871 102.645 35.0121C102.611 33.875 103.06 32.9218 103.821 32.2538C104.774 31.4142 106.239 30.9418 107.84 30.9541L112.244 30.9593V34.0718ZM112.244 18.666V27.577L107.841 27.5615C106.414 27.5628 102.842 27.8061 100.494 30.0396C99.2217 31.251 98.5764 32.8559 98.5751 34.8068C98.5738 36.4854 99.1849 38.011 100.343 39.221C102.002 40.9499 104.387 41.865 107.241 41.865C110.22 41.865 112.642 41.097 114.238 39.5411C115.65 38.1659 116.296 36.2408 116.296 34.0111V18.666H112.244Z" fill="#7E0C6E"/>
</g>
<defs>
<clipPath id="clip0">
<rect width="111" height="23.8779" fill="white" transform="translate(12.9553 18)"/>
</clipPath>
</defs>
</svg>